<svg width="128" height="128" viewBox="0 0 128 128" fill="none" xmlns="http://www.w3.org/2000/svg">
  <defs>
    <linearGradient id="grad" x1="0%" y1="0%" x2="100%" y2="100%">
      <stop offset="0%" style="stop-color:#007AFF;stop-opacity:1" />
      <stop offset="100%" style="stop-color:#5856D6;stop-opacity:1" />
    </linearGradient>
  </defs>
  <rect width="128" height="128" rx="28" fill="url(#grad)"/>
  <path d="M34 34h20v20H34zM74 34h20v20H74zM34 74h20v20H34z" fill="white"/>
  <path d="M74 74h8v8h-8zM90 74h4v4h-4zM74 90h20v4H74zM34 34h4v4h-4zM50 34h4v4h-4zM34 50h4v4h-4zM34 74h4v4h-4zM50 74h4v4h-4zM34 90h4v4h-4zM74 34h4v4h-4zM90 34h4v4h-4zM74 50h4v4h-4z" fill="white"/>
</svg> 